<svg xmlns="http://www.w3.org/2000/svg" style="display: none;">
    <defs>
        <symbol id="scan" viewBox="0 0 25 25" >
            <path fill-rule="evenodd" clip-rule="evenodd" d="M0 12.9957C0 6.36827 5.37254 0.995605 11.9999 0.995605C18.6273 0.995605 24 6.36827 24 12.9957C24 19.6231 18.6273 24.9956 11.9999 24.9956C5.37254 24.9956 0 19.6231 0 12.9957Z" fill="#483FDD"/>
            <path fill-rule="evenodd" clip-rule="evenodd" d="M11.9777 18.9956C10.2034 18.9956 8.49275 18.2971 7.28441 17.0792C6.05911 15.8443 5.4571 14.2337 5.5894 12.5442C5.82266 9.5671 8.39893 7.18642 11.582 7.00652C12.6191 6.94801 13.6631 7.12549 14.6007 7.51995C14.9414 7.66334 15.0935 8.0381 14.9404 8.35723C14.7875 8.67637 14.387 8.81895 14.0465 8.67557C13.2969 8.36023 12.4952 8.22421 11.6634 8.27109C9.15354 8.41298 7.12223 10.2898 6.9384 12.637C6.83389 13.9713 7.30864 15.2427 8.27511 16.2168C9.22855 17.1776 10.578 17.7287 11.9777 17.7287C12.0501 17.7287 12.1223 17.7274 12.194 17.7245C12.5643 17.7095 12.8826 17.9806 12.8987 18.3302C12.9147 18.6797 12.6252 18.9752 12.2519 18.9902C12.1612 18.9939 12.0697 18.9956 11.9777 18.9956Z" fill="#5CD6C0"/>
            <path fill-rule="evenodd" clip-rule="evenodd" d="M15.2402 18.1384C15.0459 18.1384 14.8534 18.0521 14.7213 17.8854C14.4884 17.5918 14.5318 17.16 14.8182 16.9212C15.9908 15.943 16.6633 14.494 16.6633 12.9457C16.6633 11.9661 16.3931 11.0141 15.8816 10.1929C15.6829 9.87389 15.774 9.45016 16.0851 9.24627C16.3962 9.04251 16.8095 9.13598 17.0081 9.45502C17.6571 10.497 18 11.7041 18 12.9457C18 14.9084 17.1477 16.745 15.6615 17.9848C15.5376 18.0881 15.3883 18.1384 15.2402 18.1384Z" fill="white"/>
            <path fill-rule="evenodd" clip-rule="evenodd" d="M20.357 14.2813C20.0019 14.2813 19.714 13.9699 19.714 13.5857C19.714 9.06485 16.3142 5.38687 12.1355 5.38687C10.9071 5.38687 9.73558 5.69459 8.65324 6.30143C8.33829 6.47825 7.95004 6.34506 7.7866 6.00395C7.62316 5.66284 7.74627 5.24306 8.06157 5.06624C9.31062 4.36593 10.7194 3.99561 12.1355 3.99561C17.0234 3.99561 21 8.29764 21 13.5857C21 13.9699 20.7122 14.2813 20.357 14.2813Z" fill="#5CD6C0"/>
            <path fill-rule="evenodd" clip-rule="evenodd" d="M11.7636 21.9956C6.93081 21.9956 3 17.959 3 12.9971C3 10.8916 3.72297 8.84332 5.0359 7.2298C5.2609 6.95328 5.6618 6.91626 5.93118 7.14744C6.20056 7.37862 6.23639 7.79031 6.01138 8.06694C4.88913 9.44596 4.27121 11.1969 4.27121 12.9971C4.27121 17.2391 7.63183 20.6902 11.7626 20.6902C13.8772 20.6902 15.9029 19.7663 17.3216 18.1554C17.557 17.888 17.959 17.8672 18.2193 18.1091C18.4796 18.3508 18.4999 18.7636 18.2643 19.031C16.6052 20.9151 14.2358 21.9956 11.7636 21.9956Z" fill="white"/>
        </symbol>
        <symbol id='alert' viewBox="0 0 25 25" >
            <circle cx="12" cy="12" r="12" fill="#483FDD"/>
            <path d="M12 3V5" stroke="#5CD6C0" stroke-width="2" stroke-linecap="round"/>
            <path d="M19.0703 5.92871L17.6561 7.34292" stroke="#5CD6C0" stroke-width="2" stroke-linecap="round"/>
            <path d="M22 13L20 13" stroke="#5CD6C0" stroke-width="2" stroke-linecap="round"/>
            <path d="M4 13L2 13" stroke="#5CD6C0" stroke-width="2" stroke-linecap="round"/>
            <path d="M6.34375 7.34277L4.92954 5.92856" stroke="#5CD6C0" stroke-width="2" stroke-linecap="round"/>
            <path fill-rule="evenodd" clip-rule="evenodd" d="M7.61334 12.0156C7.61642 9.84256 9.18781 8.04758 11.25 7.70579L11.25 7.46806C11.25 7.07134 11.5857 6.74991 12 6.74991C12.4143 6.74991 12.75 7.07134 12.75 7.46806L12.75 7.7176C14.8001 8.09042 16.3549 9.89784 16.3514 12.0619L16.3452 15.8726L16.3826 15.8728C16.8194 15.8756 17.1739 16.2327 17.1732 16.6729C17.172 17.1119 16.8165 17.4661 16.3801 17.4645L7.65953 17.4172C7.22276 17.4144 6.86824 17.0572 6.86897 16.617C6.86967 16.1954 7.19478 15.853 7.60706 15.827L7.61334 12.0156Z" fill="white"/>
            <path d="M12 19.75C12.9665 19.75 13.75 18.9665 13.75 18H10.25C10.25 18.9665 11.0335 19.75 12 19.75Z" fill="white"/>
        </symbol>
        <symbol id="quarantine" viewBox="0 0 24 24" >
            <path fill-rule="evenodd" clip-rule="evenodd" d="M11.9999 24.9956C18.6274 24.9956 24 19.623 24 12.9956C24 6.36814 18.6274 0.995605 11.9999 0.995605C5.37258 0.995605 -2.28882e-05 6.36814 -2.28882e-05 12.9956C-2.28882e-05 19.623 5.37258 24.9956 11.9999 24.9956Z" fill="#483FDD"/>
            <path fill-rule="evenodd" clip-rule="evenodd" d="M11.995 9.83561C10.3823 9.83561 9.07495 8.52821 9.07495 6.91554C9.07495 5.30286 10.3823 3.99561 11.995 3.99561C13.6076 3.99561 14.915 5.30286 14.915 6.91554C14.915 8.52821 13.6076 9.83561 11.995 9.83561Z" fill="#5CD6C0"/>
            <path fill-rule="evenodd" clip-rule="evenodd" d="M4.72507 12.7522C4.67945 12.7522 4.63302 12.7483 4.58645 12.7401C4.17878 12.668 3.90973 12.2965 3.9858 11.9102C4.31576 10.2336 5.25238 8.69352 6.62303 7.57364C6.93715 7.31699 7.41147 7.3501 7.68243 7.64763C7.95339 7.94516 7.91843 8.39444 7.60431 8.65109C6.49097 9.56076 5.73039 10.8109 5.46257 12.171C5.39524 12.5133 5.07975 12.7522 4.72507 12.7522Z" fill="white"/>
            <path fill-rule="evenodd" clip-rule="evenodd" d="M19.2906 12.7522C18.9492 12.7522 18.6432 12.5196 18.5711 12.1814C18.2778 10.8055 17.5077 9.55848 16.4024 8.66959C16.0891 8.41758 16.045 7.96604 16.3036 7.66115C16.5625 7.35599 17.026 7.31301 17.3393 7.5649C18.7016 8.66048 19.6506 10.1965 20.0116 11.8902C20.0941 12.2775 19.8387 12.6568 19.4409 12.7371C19.3905 12.7473 19.3402 12.7522 19.2906 12.7522Z" fill="white"/>
            <path fill-rule="evenodd" clip-rule="evenodd" d="M11.759 21.0226C10.9259 21.0226 10.0915 20.8667 9.29615 20.5545C8.93764 20.4138 8.75037 19.979 8.87789 19.5834C9.00528 19.1878 9.39937 18.9811 9.75776 19.1218C11.0511 19.6292 12.4704 19.629 13.7542 19.1214C14.112 18.9799 14.5068 19.1853 14.6352 19.5806C14.7634 19.976 14.5772 20.4112 14.219 20.5529C13.4271 20.866 12.5937 21.0226 11.759 21.0226Z" fill="white"/>
            <path fill-rule="evenodd" clip-rule="evenodd" d="M18.0811 19.5629C16.469 19.5629 15.1621 18.256 15.1621 16.6441C15.1621 15.032 16.469 13.7251 18.0811 13.7251C19.6931 13.7251 21 15.032 21 16.6441C21 18.256 19.6931 19.5629 18.0811 19.5629Z" fill="#5CD6C0"/>
            <path fill-rule="evenodd" clip-rule="evenodd" d="M5.91892 19.5629C4.30687 19.5629 3 18.256 3 16.6441C3 15.032 4.30687 13.7251 5.91892 13.7251C7.53097 13.7251 8.83784 15.032 8.83784 16.6441C8.83784 18.256 7.53097 19.5629 5.91892 19.5629Z" fill="#5CD6C0"/>
        </symbol>
        <symbol id="spyware" viewBox="0 0 24 24">
            <circle cx="12" cy="12" r="12" fill="#483FDD"/>
            <path fill-rule="evenodd" clip-rule="evenodd" d="M4.92188 13.7009C5.82988 11.9692 8.63934 8.50586 11.9722 8.50586C15.0166 8.50586 17.5803 10.9408 19.0224 13.7005H19.0234C18.1154 15.4322 15.306 18.8955 11.9731 18.8955C8.92873 18.8955 6.36505 16.4606 4.9229 13.7009H4.92188Z" fill="white"/>
            <ellipse cx="11.9919" cy="13.7009" rx="5.19501" ry="5.195" fill="#5CD6C0"/>
            <ellipse cx="11.992" cy="13.701" rx="2.5975" ry="2.5975" fill="#151D51"/>
            <path fill-rule="evenodd" clip-rule="evenodd" d="M12.8182 13.1767C13.3305 13.1767 13.7459 12.7613 13.7459 12.249C13.7459 11.7366 13.3305 11.3213 12.8182 11.3213C12.3058 11.3213 11.8905 11.7366 11.8905 12.249C11.8905 12.7613 12.3058 13.1767 12.8182 13.1767Z" fill="white"/>
            <path d="M11.8984 5.99508L11.8984 4.62109" stroke="#5CD6C0" stroke-width="2" stroke-linecap="round"/>
            <path d="M7.15735 5.91844L7.94543 7.04395" stroke="#5CD6C0" stroke-width="2" stroke-linecap="round"/>
            <path d="M16.6006 5.91844L15.8125 7.04395" stroke="#5CD6C0" stroke-width="2" stroke-linecap="round"/>
            <mask id="path-9-inside-1_0_970" fill="white">
            <ellipse cx="19.1342" cy="9.53654" rx="0.602942" ry="0.602941"/>
            </mask>
            <ellipse cx="19.1342" cy="9.53654" rx="0.602942" ry="0.602941" fill="#5CD6C0"/>
            <path d="M18.9022 9.53653C18.9022 9.40841 19.0061 9.30454 19.1342 9.30454V10.9744C19.9283 10.9744 20.5721 10.3307 20.5721 9.53653H18.9022ZM19.1342 9.30454C19.2623 9.30454 19.3662 9.40841 19.3662 9.53653H17.6963C17.6963 10.3307 18.3401 10.9744 19.1342 10.9744V9.30454ZM19.3662 9.53653C19.3662 9.66466 19.2623 9.76853 19.1342 9.76853V8.09866C18.3401 8.09866 17.6963 8.74242 17.6963 9.53653H19.3662ZM19.1342 9.76853C19.0061 9.76853 18.9022 9.66466 18.9022 9.53653H20.5721C20.5721 8.74242 19.9283 8.09866 19.1342 8.09866V9.76853Z" fill="#5CD6C0" mask="url(#path-9-inside-1_0_970)"/>
            <mask id="path-11-inside-2_0_970" fill="white">
            <ellipse cx="4.86857" cy="9.53654" rx="0.602942" ry="0.602941"/>
            </mask>
            <ellipse cx="4.86857" cy="9.53654" rx="0.602942" ry="0.602941" fill="#5CD6C0"/>
            <path d="M4.63657 9.53653C4.63657 9.40841 4.74044 9.30454 4.86857 9.30454V10.9744C5.66268 10.9744 6.30644 10.3307 6.30644 9.53653H4.63657ZM4.86857 9.30454C4.99669 9.30454 5.10056 9.40841 5.10056 9.53653H3.43069C3.43069 10.3307 4.07445 10.9744 4.86857 10.9744V9.30454ZM5.10056 9.53653C5.10056 9.66466 4.99669 9.76853 4.86857 9.76853V8.09866C4.07445 8.09866 3.43069 8.74242 3.43069 9.53653H5.10056ZM4.86857 9.76853C4.74044 9.76853 4.63657 9.66466 4.63657 9.53653H6.30644C6.30644 8.74242 5.66268 8.09866 4.86857 8.09866V9.76853Z" fill="#5CD6C0" mask="url(#path-11-inside-2_0_970)"/>
        </symbol>
        <symbol id="location" viewBox="0 0 24 24">
            <circle cx="12" cy="12" r="12" fill="#483FDD"/>
            <path fill-rule="evenodd" clip-rule="evenodd" d="M12.0236 14.866C13.9697 14.866 15.5472 9.47117 15.5472 7.52511C15.5472 5.57906 13.9697 4.00146 12.0236 4.00146C10.0775 4.00146 8.49995 5.57906 8.49995 7.52511C8.49995 9.47117 10.0775 14.866 12.0236 14.866ZM12.0237 8.99284C12.8346 8.99284 13.4919 8.33551 13.4919 7.52465C13.4919 6.71379 12.8346 6.05646 12.0237 6.05646C11.2128 6.05646 10.5555 6.71379 10.5555 7.52465C10.5555 8.33551 11.2128 8.99284 12.0237 8.99284Z" fill="white"/>
            <circle cx="12.0239" cy="7.52348" r="1.46819" fill="#151D51"/>
            <path d="M4.5 14.4994V14.4994C5.50865 15.4622 6.84944 15.9994 8.24384 15.9994H15.7562C17.1506 15.9994 18.4914 15.4622 19.5 14.4994V14.4994" stroke="#5CD6C0" stroke-width="2" stroke-linecap="round"/>
            <circle cx="7.49998" cy="18.7506" r="1.75" fill="#5CD6C0"/>
            <circle cx="16.5" cy="18.7506" r="1.75" fill="#5CD6C0"/>
        </symbol>
        <symbol id="visibility" viewBox="0 0 24 24">
            <circle cx="12" cy="12" r="11" fill="#483FDD" stroke="#5CD6C0" stroke-width="2"/>
            <path d="M12 3C12.2964 3 12.5273 3.24671 12.5273 3.54312V4.58203C12.5273 4.87312 12.2911 5.10938 12 5.10938C11.7089 5.10938 11.4727 4.87312 11.4727 4.58203V3.54312C11.4727 3.24671 11.7036 3 12 3Z" fill="#5579F0"/>
            <path d="M8.55191 6.03207C8.2997 6.17741 7.97742 6.09145 7.83156 5.83906L7.31032 4.93623C7.16229 4.67983 7.23909 4.35039 7.49526 4.20197C7.752 4.05322 8.0754 4.1519 8.22374 4.40887L8.74492 5.31172C8.89047 5.56379 8.80398 5.88652 8.55191 6.03207Z" fill="#5579F0"/>
            <path d="M6.03402 8.55484C5.88837 8.80688 5.56616 8.89336 5.31367 8.74785L4.41082 8.22667C4.15386 8.07833 4.05518 7.75493 4.20392 7.49819C4.35235 7.24202 4.68179 7.16522 4.93818 7.31325L5.84102 7.83449C6.09309 7.98004 6.17957 8.30277 6.03402 8.55484Z" fill="#5579F0"/>
            <path d="M5.10938 12C5.10938 12.2911 4.87312 12.5273 4.58203 12.5273H3.54312C3.24671 12.5273 3 12.2964 3 12C3 11.7036 3.24671 11.4727 3.54312 11.4727H4.58203C4.87312 11.4727 5.10938 11.7089 5.10938 12Z" fill="#5579F0"/>
            <path d="M5.84102 16.1657L4.93819 16.6869C4.68179 16.8349 4.35235 16.7581 4.20392 16.502C4.05518 16.2452 4.15386 15.9218 4.41082 15.7735L5.31367 15.2523C5.56574 15.1068 5.88848 15.1933 6.03402 15.4453C6.17957 15.6974 6.09309 16.0201 5.84102 16.1657Z" fill="#5579F0"/>
            <path d="M16.5 4.20197C16.7562 4.35039 16.833 4.67983 16.685 4.93623L16.1637 5.83906C16.0179 6.09131 15.6957 6.17751 15.4434 6.03207C15.1913 5.88652 15.1048 5.56379 15.2504 5.31172L15.7715 4.40887C15.9199 4.1519 16.2433 4.05322 16.5 4.20197Z" fill="#5579F0"/>
            <path d="M12.5273 19.418V20.4569C12.5273 20.7533 12.2964 21 12 21C11.7036 21 11.4727 20.7533 11.4727 20.4569V19.418C11.4727 19.1269 11.7089 18.8906 12 18.8906C12.2911 18.8906 12.5273 19.1269 12.5273 19.418Z" fill="#5579F0"/>
            <path d="M16.685 19.063C16.833 19.3194 16.7562 19.6488 16.5 19.7973C16.2433 19.946 15.9199 19.8473 15.7715 19.5904L15.2504 18.6875C15.1048 18.4354 15.1913 18.1127 15.4434 17.9672C15.6954 17.8216 16.0182 17.9081 16.1637 18.1602L16.685 19.063Z" fill="#5579F0"/>
            <path d="M19.5923 15.7735C19.8493 15.9218 19.948 16.2452 19.7992 16.502C19.6508 16.7581 19.3213 16.8349 19.0649 16.6869L18.1621 16.1657C17.9101 16.0201 17.8236 15.6974 17.9691 15.4453C18.1147 15.1933 18.4374 15.1068 18.6895 15.2523L19.5923 15.7735Z" fill="#5579F0"/>
            <path d="M21 12C21 12.2964 20.7533 12.5273 20.4569 12.5273H19.418C19.1269 12.5273 18.8906 12.2911 18.8906 12C18.8906 11.7089 19.1269 11.4727 19.418 11.4727H20.4569C20.7533 11.4727 21 11.7036 21 12Z" fill="#5579F0"/>
            <path d="M19.7992 7.4982C19.948 7.75493 19.8493 8.07834 19.5923 8.22667L18.6895 8.74785C18.4369 8.89337 18.1148 8.80685 17.9691 8.55485C17.8236 8.30277 17.9101 7.98004 18.1621 7.83449L19.0649 7.31325C19.3213 7.16522 19.6508 7.24203 19.7992 7.4982Z" fill="#5579F0"/>
            <path d="M8.74492 18.6875L8.22374 19.5904C8.0754 19.8473 7.752 19.946 7.49527 19.7973C7.23909 19.6488 7.16229 19.3194 7.31032 19.063L7.83156 18.1602C7.97711 17.9081 8.29949 17.8216 8.55191 17.9672C8.80398 18.1127 8.89047 18.4354 8.74492 18.6875Z" fill="#5579F0"/>
            <path d="M17.2136 6.91309L13.3441 13.3479L10.6484 10.6522L17.2136 6.91309Z" fill="#5CD6C0"/>
            <path d="M13.3465 13.3479L6.78125 17.2173L10.6508 10.6522L13.3465 13.3479Z" fill="white"/>
        </symbol>
        <symbol id="social-media" viewBox="0 0 24 24">
            <circle cx="12" cy="12" r="12" fill="#483FDD"/>
            <path d="M5 10.44C5 9.28423 5.0008 8.47856 5.05286 7.85168C5.10393 7.23678 5.19909 6.88403 5.33776 6.61708C5.62239 6.06915 6.06915 5.62239 6.61708 5.33776C6.88403 5.19909 7.23678 5.10393 7.85168 5.05286C8.47856 5.0008 9.28423 5 10.44 5H13.56C14.7158 5 15.5214 5.0008 16.1483 5.05286C16.7632 5.10393 17.116 5.19909 17.3829 5.33776C17.9308 5.62239 18.3776 6.06915 18.6622 6.61708C18.8009 6.88403 18.8961 7.23678 18.9471 7.85168C18.9992 8.47856 19 9.28423 19 10.44V13.56C19 14.7158 18.9992 15.5214 18.9471 16.1483C18.8961 16.7632 18.8009 17.116 18.6622 17.3829C18.3776 17.9308 17.9308 18.3776 17.3829 18.6622C17.116 18.8009 16.7632 18.8961 16.1483 18.9471C15.5214 18.9992 14.7158 19 13.56 19H10.44C9.28423 19 8.47856 18.9992 7.85168 18.9471C7.23678 18.8961 6.88403 18.8009 6.61708 18.6622C6.06915 18.3776 5.62239 17.9308 5.33776 17.3829C5.19909 17.116 5.10393 16.7632 5.05286 16.1483C5.0008 15.5214 5 14.7158 5 13.56V10.44Z" stroke="#5CD6C0" stroke-width="2"/>
            <circle cx="12" cy="12" r="3" stroke="white" stroke-width="1.5"/>
            <ellipse cx="16.125" cy="8.125" rx="0.874999" ry="0.875001" fill="white"/>
        </symbol>
        <symbol id="access" viewBox="0 0 24 24">
            <circle cx="12" cy="12" r="12" fill="#483FDD"/>
            <path d="M5 7.65029C5 7.04328 5.36363 6.49533 5.92296 6.25951L9.20405 4.87613C10.9119 4.15607 12.8381 4.15607 14.546 4.87613L17.827 6.25951C18.3864 6.49533 18.75 7.04328 18.75 7.65029V13.375C18.75 17.172 15.672 20.25 11.875 20.25C8.07804 20.25 5 17.172 5 13.375V7.65029Z" fill="#5CD6C0"/>
            <circle cx="11.875" cy="11.875" r="4.125" fill="white"/>
            <rect width="1.82452" height="3.96269" rx="0.912262" transform="matrix(0.707842 -0.706371 0.707842 0.706371 8.5 11.8505)" fill="#483FDD" fill-opacity="0.6"/>
            <rect width="1.79778" height="5.45339" rx="0.898889" transform="matrix(-0.726383 -0.68729 -0.688796 0.724955 15.2173 10.7356)" fill="#483FDD"/>
        </symbol>
        <symbol id="history" viewBox="0 0 24 24">
            <path fill-rule="evenodd" clip-rule="evenodd" d="M24 12C24 5.37259 18.6275 0 12.0001 0C5.37266 0 0 5.37259 0 12C0 18.6275 5.37266 24 12.0001 24C18.6275 24 24 18.6275 24 12Z" fill="#483FDD"/>
            <path d="M7.5 5C7.5 4.72386 7.72386 4.5 8 4.5H16C16.2761 4.5 16.5 4.72386 16.5 5V19C16.5 19.2761 16.2761 19.5 16 19.5H8C7.72386 19.5 7.5 19.2761 7.5 19V5Z" fill="#5CD6C0" stroke="white"/>
            <path d="M10.0816 4.66113H9.71277C9.90205 4.69883 10.0467 4.85218 10.0734 5.04333L10.0816 5.10189V4.66113Z" fill="white"/>
            <path d="M14.0155 4.66113H14.3843C14.195 4.69883 14.0503 4.85218 14.0236 5.04333L14.0155 5.10189V4.66113Z" fill="white"/>
            <path d="M10.071 5.16113H14.0049C14.0049 5.68855 13.5773 6.11611 13.0499 6.11611H11.026C10.4986 6.11611 10.071 5.68855 10.071 5.16113Z" fill="white"/>
            <path fill-rule="evenodd" clip-rule="evenodd" d="M8.99988 12C8.99988 10.3432 10.3431 9 11.9999 9C13.6567 9 14.9999 10.3432 14.9999 12C14.9999 13.6568 13.6567 15 11.9999 15C10.3431 15 8.99988 13.6568 8.99988 12Z" fill="#151D51"/>
            <path fill-rule="evenodd" clip-rule="evenodd" d="M11.403 13.2858C11.3114 13.2858 11.22 13.2506 11.1503 13.1804L10.3905 12.4148C10.2508 12.2742 10.2507 12.0461 10.3902 11.9052C10.5296 11.7644 10.7558 11.7643 10.8955 11.905L11.4106 12.4239L13.1123 10.8119C13.2561 10.6758 13.4821 10.6829 13.6173 10.828C13.7525 10.973 13.7453 11.2011 13.6015 11.3373L11.6475 13.1881C11.5786 13.2534 11.4907 13.2858 11.403 13.2858Z" fill="white"/>
        </symbol>
        <symbol id="list" viewBox="0 0 24 24">
            <circle cx="12" cy="12" r="12" fill="#483FDD"/>
            <rect x="4.95703" y="4.95605" width="14.087" height="14.087" rx="1" fill="#5CD6C0"/>
            <rect x="6.03906" y="6.58105" width="11.9197" height="2.70903" rx="1.35452" fill="#483FDD"/>
            <rect x="6.03906" y="10.6445" width="8.12709" height="2.70903" rx="1.35452" fill="white"/>
            <rect x="6.03906" y="14.709" width="10.2943" height="2.70903" rx="1.35452" fill="white"/>
        </symbol>
        <symbol id="secrets" viewBox="0 0 24 24">
            <circle cx="12" cy="12" r="12" fill="#483FDD"/>
            <circle cx="12" cy="12" r="6" fill="white"/>
            <path d="M12 2.75V4" stroke="#5CD6C0" stroke-width="2" stroke-linecap="round"/>
            <path d="M11.4542 17.25H12.5458C13.1318 17.25 13.4577 17.9279 13.0916 18.3856C12.532 19.0851 11.468 19.0851 10.9084 18.3856C10.5423 17.9279 10.8682 17.25 11.4542 17.25Z" fill="white"/>
            <path fill-rule="evenodd" clip-rule="evenodd" d="M12 8C12.5523 8 13 8.44772 13 9L12.75 12C12.75 12.5523 12.5523 13 12 13C11.4477 13 11.25 12.5523 11.25 12L11 9C11 8.44772 11.4477 8 12 8Z" fill="#151D51"/>
            <path d="M21.25 12L20 12" stroke="#5CD6C0" stroke-width="2" stroke-linecap="round"/>
            <path d="M4 12L2.75 12" stroke="#5CD6C0" stroke-width="2" stroke-linecap="round"/>
            <path d="M6.34312 6.34314L5.45924 5.45926" stroke="#5CD6C0" stroke-width="2" stroke-linecap="round"/>
            <path d="M17.6571 6.34314L18.541 5.45926" stroke="#5CD6C0" stroke-width="2" stroke-linecap="round"/>
            <ellipse cx="12" cy="14.75" rx="1" ry="1" fill="#151D51"/>
        </symbol>
        <symbol id="screen" viewBox="0 0 24 24">
            <circle cx="12" cy="12" r="12" fill="#483FDD"/>
            <mask id="mask0_0_1582" style="mask-type:alpha" maskUnits="userSpaceOnUse" x="0" y="0" width="24" height="24">
            <circle cx="12" cy="12" r="12" fill="#483FDD"/>
            </mask>
            <g mask="url(#mask0_0_1582)">
            <rect x="5" y="5" width="13.75" height="21.5" rx="1.5" fill="#5CD6C0" stroke="white"/>
            </g>
            <path d="M8.5 5.5H15.5C15.5 6.60457 14.6046 7.5 13.5 7.5H10.5C9.39543 7.5 8.5 6.60457 8.5 5.5Z" fill="white"/>
            <path fill-rule="evenodd" clip-rule="evenodd" d="M8.97972 11.1895C9.39551 9.87279 10.843 9.18744 12.125 9.70025C13.2571 9.19412 14.5775 9.78735 14.9509 10.9699L15.5921 13.0002H16.25C16.8023 13.0002 17.25 13.448 17.25 14.0002C17.25 14.5525 16.8023 15.0002 16.25 15.0002H7.75C7.19772 15.0002 6.75 14.5525 6.75 14.0002C6.75 13.448 7.19772 13.0002 7.75 13.0002H8.40789L8.97972 11.1895ZM11.6387 17.4558C11.3125 17.9383 10.7951 18.2502 10.2127 18.2502C9.90591 18.2502 9.61719 18.1637 9.36494 18.0113C8.37923 17.4158 9.35911 16.2502 10.5107 16.2502H11.9998H12H13.4893C14.6408 16.2502 15.6206 17.4156 14.6351 18.0111C14.3828 18.1636 14.094 18.2502 13.7871 18.2502C13.2047 18.2502 12.6873 17.9383 12.3611 17.4558C12.2788 17.3341 12.1468 17.2502 11.9999 17.2502C11.853 17.2502 11.721 17.3341 11.6387 17.4558Z" fill="#151D51"/>
        </symbol>
        <symbol id="recording" viewBox="0 0 24 24">
            <circle cx="12" cy="12" r="12" fill="#483FDD"/>
            <mask id="mask0_0_1604" style="mask-type:alpha" maskUnits="userSpaceOnUse" x="0" y="0" width="24" height="24">
            <circle cx="12" cy="12" r="12" fill="#483FDD"/>
            </mask>
            <g mask="url(#mask0_0_1604)">
            <rect x="5" y="5" width="13.75" height="21.5" rx="1.5" fill="#151D51" stroke="white"/>
            </g>
            <path d="M8.5 5.5H15.5C15.5 6.60457 14.6046 7.5 13.5 7.5H10.5C9.39543 7.5 8.5 6.60457 8.5 5.5Z" fill="white"/>
            <path fill-rule="evenodd" clip-rule="evenodd" d="M8.97972 11.1895C9.39551 9.87279 10.843 9.18744 12.125 9.70025C13.2571 9.19412 14.5775 9.78735 14.9509 10.9699L15.5921 13.0002H16.25C16.8023 13.0002 17.25 13.448 17.25 14.0002C17.25 14.5525 16.8023 15.0002 16.25 15.0002H7.75C7.19772 15.0002 6.75 14.5525 6.75 14.0002C6.75 13.448 7.19772 13.0002 7.75 13.0002H8.40789L8.97972 11.1895ZM11.6387 17.4558C11.3125 17.9383 10.7951 18.2502 10.2127 18.2502C9.90591 18.2502 9.61719 18.1637 9.36494 18.0113C8.37923 17.4158 9.35911 16.2502 10.5107 16.2502H11.9998H12H13.4893C14.6408 16.2502 15.6206 17.4156 14.6351 18.0111C14.3828 18.1636 14.094 18.2502 13.7871 18.2502C13.2047 18.2502 12.6873 17.9383 12.3611 17.4558C12.2788 17.3341 12.1468 17.2502 11.9999 17.2502C11.853 17.2502 11.721 17.3341 11.6387 17.4558Z" fill="white"/>
            <path fill-rule="evenodd" clip-rule="evenodd" d="M22 12C22 17.5228 17.5228 22 12 22C9.59872 22 7.39512 21.1536 5.67124 19.7429L19.7429 5.67124C21.1536 7.39511 22 9.59872 22 12ZM4.25703 18.3287L18.3287 4.25703C16.6048 2.84636 14.4013 2 12 2C6.47715 2 2 6.47715 2 12C2 14.4013 2.84636 16.6048 4.25703 18.3287ZM24 12C24 18.6274 18.6274 24 12 24C5.37258 24 0 18.6274 0 12C0 5.37258 5.37258 0 12 0C18.6274 0 24 5.37258 24 12Z" fill="#5CD6C0"/>
        </symbol>
        <symbol id="apple" viewBox="0 0 12 14">
            <path d="M8.69177 0C8.72435 0 8.75693 0 8.79136 0C8.87128 0.987309 8.49443 1.72503 8.03643 2.25925C7.58704 2.78979 6.97166 3.30435 5.97636 3.22628C5.90996 2.25311 6.28743 1.5701 6.74481 1.03711C7.169 0.540377 7.94667 0.0983621 8.69177 0Z" fill="#151D51"/>
            <path d="M11.7067 10.2754C11.7067 10.2852 11.7067 10.2939 11.7067 10.3031C11.4269 11.1502 11.028 11.8763 10.5411 12.55C10.0966 13.1617 9.55192 13.9849 8.57936 13.9849C7.73898 13.9849 7.18077 13.4445 6.31949 13.4298C5.40841 13.415 4.90738 13.8816 4.07438 13.999C3.97909 13.999 3.8838 13.999 3.79036 13.999C3.17867 13.9105 2.68501 13.4261 2.32538 12.9896C1.26491 11.6998 0.44543 10.0338 0.292969 7.90181C0.292969 7.69279 0.292969 7.48439 0.292969 7.27537C0.357519 5.74952 1.09892 4.50893 2.08439 3.90769C2.60448 3.58802 3.31945 3.31568 4.11557 3.4374C4.45676 3.49027 4.80533 3.60707 5.11087 3.72265C5.40042 3.83392 5.76252 4.03126 6.10555 4.02081C6.33793 4.01405 6.56909 3.89294 6.80331 3.80749C7.48939 3.55974 8.16194 3.27572 9.04842 3.40912C10.1138 3.57019 10.87 4.04356 11.3372 4.7739C10.4359 5.34747 9.72343 6.21183 9.84516 7.68787C9.95336 9.02867 10.7329 9.81311 11.7067 10.2754Z" fill="#151D51"/>
        </symbol>
        <symbol id="monitor" viewBox="0 0 14 13">
            <path fill-rule="evenodd" clip-rule="evenodd" d="M0.608696 0.712891C0.272546 0.712891 0 0.981198 0 1.3122V9.70258C0 10.0336 0.272546 10.3019 0.608696 10.3019H4.86957V11.8395H4.26087C3.92472 11.8395 3.65217 12.1078 3.65217 12.4388C3.65217 12.7698 3.92472 13.0381 4.26087 13.0381H9.73913C10.0753 13.0381 10.3478 12.7698 10.3478 12.4388C10.3478 12.1078 10.0753 11.8395 9.73913 11.8395H9.13043V10.3019H13.3913C13.7275 10.3019 14 10.0336 14 9.70258V1.3122C14 0.981198 13.7275 0.712891 13.3913 0.712891H0.608696Z" fill="#151D51"/>
        </symbol>
        <symbol id="ok" viewBox="0 0 16 16" fill="none">
            <circle cx="8" cy="8" r="8" fill="#483FDD"/>
            <path d="M5 8.5L7.57143 11L11 6" stroke="white" stroke-width="2" stroke-linecap="round" stroke-linejoin="round"/>
        </symbol>
        <symbol id="time" viewBox="0 0 14 19">
            <rect x="0.691086" y="0.451035" width="12.6178" height="2.26223" rx="1.13112" fill="#151D51"/>
            <rect x="0.691086" y="16.2867" width="12.6178" height="2.26223" rx="1.13112" fill="#151D51"/>
            <path d="M8.81644 7.73514C8.2307 8.50133 8.1951 9.55462 8.72779 10.3586L11.4922 14.5309C11.9904 15.2828 11.4512 16.2868 10.5493 16.2868H3.4507C2.54874 16.2868 2.0096 15.2828 2.50778 14.5309L5.27218 10.3586C5.80487 9.55462 5.76928 8.50133 5.18353 7.73514L2.73433 4.53146C2.16531 3.78715 2.69603 2.71336 3.63293 2.71336H10.367C11.3039 2.71336 11.8347 3.78715 11.2656 4.53146L8.81644 7.73514Z" fill="#DFECFC"/>
            <path d="M7.36751 8.05303C7.18512 8.29627 6.81953 8.294 6.64018 8.0485L4.87188 5.62795C4.65348 5.32901 4.867 4.90861 5.23722 4.90861L8.8205 4.90861C9.19331 4.90861 9.40614 5.33421 9.18249 5.63248L7.36751 8.05303Z" fill="#F5AC4C"/>
        </symbol>
        <symbol id="protection" viewBox="0 0 20 20">
            <path d="M20 10C20 15.5228 15.5228 20 10 20C4.47715 20 0 15.5228 0 10C0 4.47715 4.47715 0 10 0C15.5228 0 20 4.47715 20 10Z" fill="#483FDD"/>
            <mask id="mask0_0_2073" style="mask-type:alpha" maskUnits="userSpaceOnUse" x="0" y="0" width="20" height="20">
            <path d="M20 10C20 15.5228 15.5228 20 10 20C4.47715 20 0 15.5228 0 10C0 4.47715 4.47715 0 10 0C15.5228 0 20 4.47715 20 10Z" fill="#483FDD"/>
            </mask>
            <g mask="url(#mask0_0_2073)">
            <path d="M4.58402 6.24967C4.58402 5.3292 5.33021 4.58301 6.25069 4.58301H13.5424C14.4628 4.58301 15.209 5.3292 15.209 6.24967V19.9997C15.209 20.9201 14.4628 21.6663 13.5424 21.6663H6.25069C5.33021 21.6663 4.58402 20.9201 4.58402 19.9997V6.24967Z" fill="#5CD6C0"/>
            <path fill-rule="evenodd" clip-rule="evenodd" d="M6.25032 3.33167H13.542C15.1528 3.33167 16.4587 4.6375 16.4587 6.24833V19.9983C16.4587 21.6092 15.1528 22.915 13.542 22.915H6.25032C4.63949 22.915 3.33366 21.6092 3.33366 19.9983V6.24833C3.33366 4.6375 4.63949 3.33167 6.25032 3.33167ZM6.25032 4.58167C5.32985 4.58167 4.58366 5.32786 4.58366 6.24833V19.9983C4.58366 20.9188 5.32985 21.665 6.25032 21.665H13.542C14.4625 21.665 15.2087 20.9188 15.2087 19.9983V6.24833C15.2087 5.32786 14.4625 4.58167 13.542 4.58167H6.25032Z" fill="white"/>
            <path d="M11.26 12.69C11.9733 12.9567 12.33 13.4567 12.33 14.19C12.33 14.7367 12.1033 15.1933 11.65 15.56C11.2033 15.92 10.62 16.1 9.9 16.1C9.16666 16.1 8.59333 15.9167 8.18 15.55C7.77333 15.1833 7.55333 14.6867 7.52 14.06H8.81C8.92333 14.6933 9.28333 15.01 9.89 15.01C10.2167 15.01 10.48 14.9267 10.68 14.76C10.88 14.5867 10.98 14.3733 10.98 14.12C10.98 13.8333 10.88 13.61 10.68 13.45C10.48 13.29 10.2067 13.21 9.86 13.21H9.28V12.24H9.83C10.1367 12.24 10.38 12.1667 10.56 12.02C10.74 11.8667 10.83 11.6533 10.83 11.38C10.83 11.12 10.7433 10.9133 10.57 10.76C10.3967 10.6 10.17 10.52 9.89 10.52C9.63 10.52 9.40666 10.5933 9.22 10.74C9.04 10.88 8.92333 11.0833 8.87 11.35H7.61C7.63 10.7967 7.86333 10.35 8.31 10.01C8.76333 9.66332 9.30666 9.48999 9.94 9.48999C10.5467 9.48999 11.0633 9.65332 11.49 9.97999C11.9167 10.3 12.13 10.7367 12.13 11.29C12.13 11.8967 11.84 12.3433 11.26 12.63V12.69Z" fill="#151D51"/>
            </g>
        </symbol>
        <symbol id="checkup" viewBox="0 0 16 20">
            <path d="M0 4.7096C0 3.98282 0.429695 3.3248 1.09512 3.03255L5.61129 1.0491C7.13359 0.380518 8.86641 0.380518 10.3887 1.0491L14.9049 3.03255C15.5703 3.3248 16 3.98282 16 4.7096V12C16 16.4183 12.4183 20 8 20C3.58172 20 0 16.4183 0 12V4.7096Z" fill="#483FDD"/>
            <rect opacity="0.6" width="2.88277" height="6.2611" rx="1.44139" transform="matrix(0.691337 -0.722532 0.691337 0.722532 2.96191 10.1665)" fill="#5CD6C0"/>
            <rect width="2.83702" height="8.627" rx="1.41851" transform="matrix(-0.71032 -0.703879 -0.671911 0.740631 13.3271 8.36353)" fill="#5CD6C0"/>
        </symbol>
        <symbol id="infinity" viewBox="0 0 20 20">
            <path d="M10 20C15.5228 20 20 15.5228 20 10C20 4.47715 15.5228 0 10 0C4.47715 0 0 4.47715 0 10C0 15.5228 4.47715 20 10 20Z" fill="#483FDD"/>
            <path d="M16.3252 10C16.3252 10.8202 16.0587 11.3401 15.6573 11.6719C15.2331 12.0224 14.5522 12.25 13.5752 12.25C12.9322 12.25 12.235 11.9726 11.6204 11.5403C11.2062 11.2489 10.8619 10.9094 10.6284 10.5956C10.374 10.2537 10.3252 10.044 10.3252 10C10.3252 9.92592 10.3677 9.74367 10.5516 9.46914C10.7261 9.20848 10.9893 8.92373 11.3194 8.65905C11.9929 8.11916 12.8322 7.75 13.5752 7.75C14.5622 7.75 15.2418 7.97813 15.6628 8.32729C16.0611 8.65757 16.3252 9.17671 16.3252 10Z" stroke="#5CD6C0" stroke-width="1.5"/>
            <path d="M3.6748 10C3.67481 9.1798 3.94125 8.65989 4.3427 8.32814C4.76693 7.97756 5.44784 7.75 6.42481 7.75C7.18951 7.75 8.02493 8.14306 8.69467 8.70117C9.02265 8.97449 9.28393 9.26577 9.45702 9.5254C9.64426 9.80627 9.6748 9.96862 9.6748 10C9.6748 10.0741 9.63225 10.2563 9.44843 10.5309C9.27391 10.7915 9.01073 11.0763 8.68057 11.3409C8.0071 11.8808 7.16783 12.25 6.4248 12.25C5.43781 12.25 4.75816 12.0219 4.33718 11.6727C3.93895 11.3424 3.6748 10.8233 3.6748 10Z" stroke="#5CD6C0" stroke-width="1.5"/>   
        </symbol>
        <symbol id="help" viewBox="0 0 20 20">
            <circle cx="10" cy="10" r="10" fill="#483FDD"/>
            <path fill-rule="evenodd" clip-rule="evenodd" d="M7.98865 9.14938C7.98865 8.63217 8.40793 8.21289 8.92514 8.21289L15.9391 8.21289C16.4563 8.21289 16.8756 8.63217 16.8756 9.14938L16.8756 14.2306C16.8756 14.5882 16.5857 14.8781 16.228 14.8781C15.8704 14.8781 15.5805 15.168 15.5805 15.5257L15.5805 15.7995C15.5805 16.6449 14.537 17.044 13.9728 16.4142L12.8761 15.1898C12.6984 14.9914 12.4448 14.8781 12.1785 14.8781L8.92514 14.8781C8.40793 14.8781 7.98865 14.4588 7.98865 13.9416L7.98865 9.14938Z" fill="#5CD6C0"/>
            <path d="M11.3212 11.7324L12.2361 12.6581L13.9133 10.8066" stroke="#009796" stroke-width="1.09258" stroke-linecap="round" stroke-linejoin="round"/>
            <path fill-rule="evenodd" clip-rule="evenodd" d="M12.0612 5.45798C12.0612 4.94077 11.642 4.52148 11.1247 4.52148H4.11078C3.59357 4.52148 3.17429 4.94077 3.17429 5.45798V10.5387C3.17429 10.8966 3.46442 11.1867 3.82233 11.1867C4.18023 11.1867 4.47037 11.4768 4.47037 11.8347V12.1081C4.47037 12.9535 5.51391 13.3526 6.07802 12.7228L7.1748 11.4984C7.35244 11.3 7.60611 11.1867 7.87236 11.1867H11.1247C11.642 11.1867 12.0612 10.7674 12.0612 10.2502V5.45798Z" fill="white"/>
            <path d="M5.39592 6.74414L9.8394 6.74414" stroke="#483FDD" stroke-width="1.09258" stroke-linecap="round"/>
            <path d="M5.39592 8.5957L7.98795 8.5957" stroke="#483FDD" stroke-width="1.09258" stroke-linecap="round"/>
        </symbol>
        <symbol id="money" viewBox="0 0 28 25">
            <ellipse cx="13.4944" cy="12.5" rx="12" ry="11.9104" transform="rotate(90 13.4944 12.5)" fill="#6C1DA0"/>
            <ellipse cx="13.4941" cy="12.4998" rx="10.2522" ry="10.1757" transform="rotate(90 13.4941 12.4998)" fill="#7C42D5"/>
            <rect x="0.000366211" y="9.42944" width="27.1642" height="6.31579" rx="2.10526" fill="#6C1DA0"/>
            <path d="M4.71766 11.0718H4.02882L3.41745 12.6634L2.8044 11.0718H2.11556V13.4297H2.58545V11.663L3.16819 13.2023H3.66503L4.24777 11.6495V13.4297H4.71766V11.0718ZM6.37877 11.028C5.65287 11.028 5.14087 11.5467 5.14087 12.2507C5.14087 12.9547 5.65287 13.4735 6.37877 13.4735C7.10466 13.4735 7.61835 12.9547 7.61835 12.2507C7.61835 11.5467 7.10466 11.028 6.37877 11.028ZM6.37877 11.4794C6.8133 11.4794 7.12656 11.7926 7.12656 12.2507C7.12656 12.7088 6.8133 13.0221 6.37877 13.0221C5.94593 13.0221 5.63098 12.7088 5.63098 12.2507C5.63098 11.7926 5.94593 11.4794 6.37877 11.4794ZM10.1485 11.0718H9.67695V12.6465L8.47948 11.0718H8.0399V13.4297H8.5098L8.51148 11.855L9.70727 13.4297H10.1485V11.0718ZM12.4463 12.9985H11.1545V12.4562H12.3739V12.0251H11.1545V11.503H12.4328V11.0718H10.6846V13.4297H12.4463V12.9985ZM14.9441 11.0718H14.4085L13.8156 12.0722L13.2228 11.0718H12.6704L13.5782 12.4983V13.4297H14.0481V12.5L14.9441 11.0718ZM15.9807 11.0718V13.4297H17.0013C17.5672 13.4297 17.8889 13.2074 17.8889 12.7543C17.8889 12.5 17.7121 12.2979 17.4965 12.2255C17.6935 12.1531 17.8384 11.9627 17.8384 11.7253C17.8384 11.2756 17.4931 11.0718 16.9441 11.0718H15.9807ZM16.9777 12.4495C17.2371 12.4495 17.4005 12.5101 17.4005 12.7307C17.4005 12.9564 17.2371 13.0171 16.9777 13.0171L16.4506 13.0154V12.4495H16.9777ZM16.9306 11.4861C17.163 11.4861 17.3483 11.5366 17.3483 11.759C17.3483 11.988 17.1664 12.0368 16.9323 12.0368H16.4506V11.4861H16.9306ZM19.5316 11.0718H18.9589L18.041 13.4297H18.5311L18.7366 12.8806H19.7421L19.9476 13.4297H20.4495L19.5316 11.0718ZM19.2402 11.5366L19.5804 12.4478H18.8983L19.2402 11.5366ZM21.7702 11.028C21.0443 11.028 20.5323 11.5417 20.5323 12.2507C20.5323 12.9598 21.0443 13.4735 21.7702 13.4735C22.2014 13.4735 22.5567 13.2815 22.7656 12.975L22.3816 12.6987C22.2401 12.9042 22.0279 13.0221 21.7668 13.0221C21.3508 13.0221 21.0241 12.724 21.0224 12.2507C21.0224 11.7926 21.3391 11.4794 21.7668 11.4794C22.0296 11.4794 22.2435 11.6006 22.3765 11.8044L22.7807 11.5568C22.5887 11.2267 22.2047 11.028 21.7702 11.028ZM24.7138 13.4297H25.3235L24.2608 12.2221L25.2494 11.0718H24.6599L23.8801 12.0267H23.6578V11.0718H23.1879V13.4297H23.6578V12.4596H23.8751L24.7138 13.4297Z" fill="white"/>
            <path fill-rule="evenodd" clip-rule="evenodd" d="M8.12239 17.159C8.06214 17.0723 7.98504 16.9986 7.89567 16.9423C7.80631 16.8859 7.70651 16.8481 7.6022 16.8311C7.4979 16.814 7.39122 16.818 7.28851 16.843C7.1858 16.8679 7.08916 16.9132 7.00434 16.9761C6.91952 17.039 6.84825 17.1184 6.79477 17.2094C6.74129 17.3004 6.70669 17.4012 6.69303 17.5058C6.67937 17.6104 6.68694 17.7167 6.71527 17.8183C6.7436 17.92 6.79211 18.0149 6.85794 18.0974C6.91685 18.1784 6.99186 18.2464 7.07826 18.2972C7.16467 18.348 7.26063 18.3805 7.36017 18.3927C7.45971 18.4048 7.5607 18.3964 7.65683 18.3679C7.75296 18.3394 7.84219 18.2915 7.91894 18.227C7.94935 18.2043 7.97826 18.1796 8.0055 18.1531L7.56787 17.5712L7.34363 17.7384L7.56527 18.0339C7.48608 18.0714 7.3956 18.0776 7.31205 18.0511C7.2285 18.0246 7.15811 17.9676 7.11508 17.8913C7.05321 17.7952 7.0301 17.6793 7.05042 17.5669C7.07073 17.4544 7.13295 17.3538 7.22456 17.2854C7.31616 17.2169 7.43036 17.1855 7.54417 17.1977C7.65798 17.2098 7.76296 17.2646 7.83798 17.3508C7.87562 17.398 7.90281 17.4525 7.91773 17.5109C7.93266 17.5693 7.93499 17.6302 7.92456 17.6896L8.28299 17.744C8.29808 17.6407 8.2916 17.5354 8.26397 17.4347C8.23633 17.3341 8.18813 17.2402 8.12239 17.159ZM9.76733 18.6362L9.4721 18.4253L8.95265 19.1473C8.93209 19.1849 8.90376 19.2176 8.86956 19.2435C8.83536 19.2693 8.79607 19.2876 8.75426 19.2971C8.71245 19.3066 8.66909 19.3072 8.62704 19.2988C8.585 19.2903 8.54524 19.2731 8.51037 19.2482C8.4755 19.2232 8.44633 19.1912 8.42478 19.1542C8.40323 19.1172 8.3898 19.0761 8.38537 19.0335C8.38094 18.9909 8.38561 18.9479 8.39908 18.9073C8.41255 18.8666 8.4345 18.8293 8.4635 18.7978L8.98296 18.0758L8.68773 17.8645L8.15875 18.599C8.05622 18.7423 8.01491 18.9203 8.04389 19.0939C8.07288 19.2676 8.16979 19.4226 8.31329 19.5249C8.4568 19.6272 8.63515 19.6685 8.80912 19.6395C8.98309 19.6106 9.13842 19.5139 9.24095 19.3707L9.76733 18.6362ZM10.8417 19.0864L10.4409 18.9257L9.33228 20.109L9.68291 20.2495L9.90846 19.998L10.4669 20.2218L10.4543 20.5588L10.8119 20.7022L10.8417 19.0864ZM10.5032 19.3365L10.4825 19.8775L10.1409 19.7405L10.5032 19.3365ZM11.6746 19.3594L11.3846 20.8483L11.7413 20.917L11.8495 20.3596L11.9019 20.3696L12.1876 21.0025L12.6126 21.0842L12.2941 20.4361C12.4089 20.4522 12.5256 20.4233 12.6196 20.3554C12.7135 20.2875 12.7774 20.1859 12.7979 20.0719C12.8126 20.0015 12.8114 19.9287 12.7945 19.8587C12.7776 19.7888 12.7453 19.7235 12.7001 19.6675C12.6548 19.6115 12.5977 19.5662 12.5328 19.5349C12.4679 19.5036 12.3969 19.4871 12.3248 19.4865L11.6746 19.3594ZM12.2577 19.8057C12.2831 19.8035 12.3088 19.8072 12.3325 19.8166C12.3563 19.8259 12.3775 19.8407 12.3946 19.8596C12.4117 19.8786 12.4241 19.9012 12.4309 19.9258C12.4378 19.9504 12.4388 19.9762 12.4339 20.0012C12.429 20.0262 12.4184 20.0498 12.4028 20.07C12.3873 20.0902 12.3672 20.1065 12.3443 20.1177C12.3213 20.1289 12.2961 20.1346 12.2705 20.1343C12.245 20.1341 12.2198 20.128 12.1971 20.1164L11.9079 20.0607L11.9685 19.75L12.2577 19.8057ZM14.1589 19.6912L13.726 19.6796L13.1009 21.1753L13.4793 21.1857L13.6035 20.8712L14.2061 20.888L14.3121 21.2086L14.6983 21.219L14.1589 19.6912ZM13.9286 20.0438L14.0983 20.5584L13.7295 20.5484L13.9286 20.0438ZM16.3185 19.3456L15.9636 19.4294L16.177 20.3303L15.2874 19.5889L14.9485 19.6688L15.2982 21.1455L15.6523 21.0621L15.4389 20.1613L16.3285 20.9027L16.6687 20.8228L16.3185 19.3456ZM17.6211 18.6975L16.5099 19.2834L16.6666 19.5785L17.0631 19.3694L17.6142 20.4063L17.9332 20.2378L17.3826 19.2009L17.7778 18.9922L17.6211 18.6975ZM19.4954 18.6803L18.892 19.1987L18.7115 18.9905L19.2768 18.5053L19.0656 18.2612L18.5003 18.7464L18.3301 18.5493L18.9301 18.0343L18.7184 17.7894L17.8449 18.539L18.8293 19.677L19.7058 18.9244L19.4954 18.6803ZM20.6391 17.3158L20.1452 17.9427L19.9288 17.7721L20.3911 17.1849L20.1357 16.9853L19.6729 17.5725L19.4664 17.4113L19.9578 16.7879L19.7015 16.5874L18.9864 17.4947L20.1798 18.4271L20.8954 17.5167L20.6391 17.3158Z" fill="white"/>
            <path fill-rule="evenodd" clip-rule="evenodd" d="M6.43608 6.8575C6.36635 6.93853 6.31513 7.03279 6.28575 7.13413C6.25637 7.23548 6.24948 7.34165 6.26554 7.44576C6.28159 7.54986 6.32023 7.64957 6.37894 7.73841C6.43765 7.82725 6.51511 7.90322 6.60632 7.96141C6.69429 8.02474 6.79475 8.07017 6.90155 8.09493C7.00836 8.11968 7.11927 8.12323 7.22752 8.10537C7.33576 8.08752 7.43908 8.04861 7.53115 7.99105C7.62321 7.93349 7.70211 7.85848 7.76301 7.77059C7.82555 7.69158 7.87023 7.60088 7.8942 7.50428C7.91817 7.40768 7.92092 7.30731 7.90224 7.2096C7.88355 7.11189 7.84385 7.01901 7.7857 6.93688C7.72755 6.85475 7.65223 6.7852 7.56454 6.73267C7.53258 6.71042 7.49897 6.69047 7.46398 6.67296L7.01728 7.2577L7.25341 7.41954L7.47925 7.12289C7.54089 7.18634 7.57488 7.27011 7.5742 7.35692C7.57352 7.44373 7.53824 7.52696 7.47562 7.58943C7.43993 7.63646 7.39453 7.6759 7.34226 7.70528C7.28999 7.73466 7.23197 7.75335 7.17184 7.76018C7.1117 7.76701 7.05073 7.76183 6.99275 7.74497C6.93477 7.72812 6.88102 7.69994 6.83486 7.6622C6.78393 7.63294 6.73997 7.5937 6.70583 7.54702C6.6717 7.50035 6.64817 7.44729 6.63675 7.3913C6.62534 7.33532 6.6263 7.27765 6.63959 7.22207C6.65287 7.16648 6.67817 7.11422 6.71385 7.06868C6.74939 7.01877 6.79547 6.97665 6.8491 6.94506C6.90274 6.91347 6.9627 6.89313 7.02509 6.88537L6.96928 6.53146C6.86197 6.54795 6.7593 6.58538 6.66761 6.64145C6.57592 6.69752 6.49713 6.77104 6.43608 6.8575ZM8.41747 5.01632L8.12599 5.24709L8.71979 5.92261C8.751 5.95052 8.77519 5.98489 8.79055 6.02312C8.80591 6.06135 8.81202 6.10244 8.80843 6.14327C8.80484 6.1841 8.79164 6.22359 8.76982 6.25877C8.74801 6.29395 8.71814 6.32389 8.68251 6.34631C8.65235 6.37579 8.61573 6.39841 8.5753 6.41252C8.53488 6.42663 8.49168 6.43187 8.44886 6.42787C8.40605 6.42386 8.3647 6.41071 8.32783 6.38937C8.29097 6.36802 8.25951 6.33903 8.23577 6.30451L7.64242 5.629L7.35138 5.85934L7.95405 6.54568C8.0078 6.61718 8.07721 6.67644 8.15739 6.7193C8.23756 6.76216 8.32653 6.78755 8.41801 6.79369C8.50948 6.79982 8.60121 6.78656 8.68674 6.75482C8.77226 6.72308 8.84949 6.67364 8.91294 6.61001C8.99014 6.56336 9.05542 6.50057 9.10391 6.42629C9.1524 6.35202 9.18287 6.26819 9.19304 6.18101C9.20321 6.09383 9.19283 6.00556 9.16266 5.92274C9.13249 5.83993 9.08333 5.7647 9.0188 5.70265L8.41747 5.01632ZM9.77811 4.29604L9.37429 4.48463L9.5201 6.08503L9.87457 5.92012L9.83691 5.58699L10.4018 5.3244L10.6548 5.55732L11.0165 5.38817L9.77811 4.29604ZM9.73598 4.71153L10.1417 5.08498L9.79621 5.24566L9.73598 4.71153ZM10.8342 3.88167L11.1916 5.34655L11.5606 5.26346L11.4267 4.71456L11.4809 4.70252L12.0223 5.16003L12.4621 5.06202L11.8814 4.60204C11.9971 4.57118 12.0958 4.49815 12.1565 4.39845C12.2172 4.29875 12.2352 4.18021 12.2065 4.06795C12.1898 3.99781 12.1572 3.93208 12.111 3.87545C12.0648 3.81882 12.0062 3.7727 11.9394 3.74037C11.8725 3.70804 11.7991 3.69032 11.7243 3.68846C11.6495 3.68659 11.5753 3.70063 11.5068 3.72959L10.8342 3.88167ZM11.5799 4.04967C11.6029 4.03691 11.6287 4.02951 11.6552 4.02806C11.6818 4.02661 11.7083 4.03116 11.7327 4.04133C11.7571 4.0515 11.7786 4.06701 11.7957 4.08663C11.8127 4.10625 11.8248 4.12943 11.8308 4.15432C11.8369 4.1792 11.8368 4.20511 11.8306 4.22996C11.8244 4.25481 11.8123 4.27792 11.7952 4.29743C11.778 4.31695 11.7563 4.33233 11.7319 4.34235C11.7075 4.35237 11.6809 4.35675 11.6544 4.35514L11.3548 4.42201L11.2803 4.11654L11.5799 4.04967ZM13.6323 3.53653L13.1813 3.53296L12.5625 5.03315L12.9572 5.03626L13.0795 4.72159L13.708 4.72355L13.8254 5.03925L14.2277 5.04243L13.6323 3.53653ZM13.4002 3.89204L13.5885 4.3988L13.2041 4.39576L13.4002 3.89204ZM16.2234 3.94831L15.8553 3.85939L15.6141 4.75064L15.1538 3.69088L14.8022 3.60683L14.4068 5.06835L14.774 5.15726L15.0152 4.26558L15.4755 5.32534L15.828 5.40983L16.2234 3.94831ZM17.9126 4.71934L16.7444 4.15109L16.5834 4.44696L17.0003 4.64978L16.4352 5.6907L16.7705 5.85374L17.3361 4.81283L17.7516 5.01478L17.9126 4.71934ZM18.4977 6.63669L17.8497 6.1392L18.0329 5.92563L18.6391 6.39226L18.8538 6.14197L18.2477 5.67534L18.4209 5.47331L19.0644 5.96862L19.28 5.71747L18.3433 4.99624L17.3417 6.16529L18.282 6.88913L18.4977 6.63669ZM19.501 7.77643L18.9814 7.15912L19.2062 6.98888L19.6935 7.56681L19.9588 7.3655L19.4716 6.78758L19.6856 6.625L20.2026 7.23885L20.4688 7.03669L19.7157 6.14319L18.4777 7.08376L19.2329 7.98029L19.501 7.77643Z" fill="white"/>
        </symbol>
        <symbol id="download" viewBox="0 0 24 24">
            <rect x="0.500069" y="0.5" width="23" height="23" rx="6" fill="#5CD6C0"/>
            <rect x="1.62793" y="1.62793" width="20.7441" height="20.7441" rx="5" fill="#5FE1CA"/>
            <path d="M14.3338 4.04433C14.3338 3.48867 13.8816 3.03822 13.3237 3.03822H10.6302C10.0723 3.03822 9.62011 3.48867 9.62011 4.04433V7.66624C9.62011 8.2219 9.16788 8.67235 8.61003 8.67235H7.26695C6.37834 8.67235 5.92273 9.73291 6.5363 10.3732L11.2463 15.2881C11.6442 15.7033 12.3097 15.7033 12.7076 15.2881L17.4176 10.3732C18.0312 9.73291 17.5756 8.67235 16.687 8.67235H15.3439C14.7861 8.67235 14.3338 8.2219 14.3338 7.66624V4.04433Z" fill="#483FDD"/>
            <rect x="3.52927" y="14.8728" width="17.0807" height="4.27225" rx="0.736338" fill="#7C42D5"/>
            <path d="M4.65377 14.121H5.59155V9.57421H4.75323V9.78735C4.75323 10.1426 4.59693 10.4054 4.12094 10.4054H3.65915V11.1514H4.65377V14.121Z" fill="white"/>
            <path d="M7.96026 14.1921C9.03303 14.1921 9.74347 13.4319 9.74347 11.8476C9.74347 10.2704 9.03303 9.49607 7.95316 9.49607C6.88039 9.49607 6.14153 10.2704 6.14153 11.8405C6.14153 13.4248 6.88039 14.1921 7.96026 14.1921ZM7.96026 13.4177C7.49137 13.4177 7.10773 12.9914 7.10773 11.8476C7.10773 10.7038 7.49137 10.2704 7.96026 10.2704C8.43626 10.2704 8.78437 10.718 8.78437 11.8547C8.78437 12.9772 8.44336 13.4177 7.96026 13.4177Z" fill="white"/>
            <path d="M11.962 14.1921C13.0348 14.1921 13.7453 13.4319 13.7453 11.8476C13.7453 10.2704 13.0348 9.49607 11.9549 9.49607C10.8822 9.49607 10.1433 10.2704 10.1433 11.8405C10.1433 13.4248 10.8822 14.1921 11.962 14.1921ZM11.962 13.4177C11.4932 13.4177 11.1095 12.9914 11.1095 11.8476C11.1095 10.7038 11.4932 10.2704 11.962 10.2704C12.438 10.2704 12.7862 10.718 12.7862 11.8547C12.7862 12.9772 12.4451 13.4177 11.962 13.4177Z" fill="white"/>
            <path d="M17.5541 10.5688H16.46L15.1812 11.7979H15.1243V9.0769H14.215V14.121H15.1243V12.9346L15.4938 12.5794L16.5523 14.121H17.5541L16.1048 11.9826L17.5541 10.5688Z" fill="white"/>
            <path d="M20.8341 11.7624H19.5766V10.5688H18.781V11.7624H17.5093V12.5012H18.781V13.6948H19.5766V12.5012H20.8341V11.7624Z" fill="white"/>
            <path d="M5.58452 15.5996V16.3977C5.50067 16.3045 5.3454 16.2207 5.13423 16.2207C4.72742 16.2207 4.40445 16.5188 4.40445 17.025C4.40445 17.5188 4.7181 17.8355 5.13423 17.8355C5.37645 17.8355 5.52241 17.7206 5.59694 17.6213H5.62489L5.65905 17.8045H5.98201V15.5996H5.58452ZM5.19634 17.4908C4.96032 17.4908 4.80195 17.3045 4.80195 17.025C4.80195 16.7517 4.96032 16.5654 5.19634 16.5654C5.43235 16.5654 5.58452 16.7517 5.58452 17.025C5.58452 17.3045 5.43235 17.4908 5.19634 17.4908Z" fill="white"/>
            <path d="M7.08626 17.8355C7.55519 17.8355 7.9061 17.5063 7.9061 17.025C7.9061 16.5499 7.55208 16.2207 7.08626 16.2207C6.62045 16.2207 6.26643 16.5468 6.26643 17.025C6.26643 17.5032 6.62355 17.8355 7.08626 17.8355ZM7.08626 17.4908C6.83162 17.4908 6.66392 17.2859 6.66392 17.025C6.66392 16.7673 6.83162 16.5654 7.08626 16.5654C7.34091 16.5654 7.51171 16.7673 7.51171 17.025C7.51171 17.2859 7.34402 17.4908 7.08626 17.4908Z" fill="white"/>
            <path d="M8.43665 17.8045H8.87141L9.16332 16.7921H9.18816L9.47386 17.8045H9.90862L10.3279 16.2518H9.95831L9.69745 17.3542H9.67261L9.3838 16.3511H8.97078L8.67887 17.3511H8.65403L8.39006 16.2518H8.02362L8.43665 17.8045Z" fill="white"/>
            <path d="M10.5314 17.8045H10.9289V16.9629C10.9289 16.6865 11.0966 16.5654 11.286 16.5654C11.4723 16.5654 11.6183 16.6896 11.6183 16.9443V17.8045H12.0158V16.8635C12.0158 16.4567 11.7797 16.2207 11.4102 16.2207C11.1773 16.2207 11.0469 16.3139 10.9537 16.435H10.9289L10.8947 16.2518H10.5314V17.8045Z" fill="white"/>
            <path d="M12.3631 17.8045H12.7606V15.5996H12.3631V17.8045Z" fill="white"/>
            <path d="M13.8643 17.8355C14.3332 17.8355 14.6841 17.5063 14.6841 17.025C14.6841 16.5499 14.3301 16.2207 13.8643 16.2207C13.3984 16.2207 13.0444 16.5468 13.0444 17.025C13.0444 17.5032 13.4015 17.8355 13.8643 17.8355ZM13.8643 17.4908C13.6096 17.4908 13.4419 17.2859 13.4419 17.025C13.4419 16.7673 13.6096 16.5654 13.8643 16.5654C14.1189 16.5654 14.2897 16.7673 14.2897 17.025C14.2897 17.2859 14.122 17.4908 13.8643 17.4908Z" fill="white"/>
            <path d="M16.3999 17.5063C16.3254 17.5063 16.2881 17.4691 16.2881 17.3883V16.82C16.2881 16.4039 15.9931 16.2207 15.6297 16.2207C15.2322 16.2207 14.9838 16.4474 14.9528 16.7704H15.3503C15.3751 16.6306 15.462 16.5375 15.6297 16.5375C15.7819 16.5375 15.8906 16.6213 15.8906 16.7921V16.8573L15.4062 16.907C15.1205 16.9349 14.8938 17.0809 14.8938 17.379C14.8938 17.6865 15.1267 17.8355 15.4434 17.8355C15.6887 17.8355 15.8502 17.7517 15.9558 17.6181C16.0086 17.761 16.1235 17.8045 16.2695 17.8045H16.4372V17.5063H16.3999ZM15.8906 17.2051C15.8906 17.4505 15.6794 17.5312 15.5117 17.5312C15.3875 17.5312 15.2912 17.4877 15.2912 17.3635C15.2912 17.2424 15.3999 17.1834 15.5428 17.1679L15.8906 17.1306V17.2051Z" fill="white"/>
            <path d="M17.7637 15.5996V16.3977C17.6798 16.3045 17.5245 16.2207 17.3134 16.2207C16.9066 16.2207 16.5836 16.5188 16.5836 17.025C16.5836 17.5188 16.8972 17.8355 17.3134 17.8355C17.5556 17.8355 17.7016 17.7206 17.7761 17.6213H17.804L17.8382 17.8045H18.1612V15.5996H17.7637ZM17.3755 17.4908C17.1395 17.4908 16.9811 17.3045 16.9811 17.025C16.9811 16.7517 17.1395 16.5654 17.3755 16.5654C17.6115 16.5654 17.7637 16.7517 17.7637 17.025C17.7637 17.3045 17.6115 17.4908 17.3755 17.4908Z" fill="white"/>
            <path d="M19.132 17.8355C19.4611 17.8355 19.7344 17.6927 19.7344 17.3728C19.7344 17.0809 19.5419 16.9567 19.2717 16.8884L19.1257 16.8511C18.9767 16.8107 18.8711 16.7828 18.8711 16.6741C18.8711 16.5747 18.9549 16.5157 19.0761 16.5157C19.222 16.5157 19.309 16.584 19.3245 16.6958H19.7065C19.6847 16.4412 19.4922 16.2207 19.0729 16.2207C18.7655 16.2207 18.4922 16.3853 18.4922 16.6958C18.4922 17.0002 18.7282 17.084 18.9363 17.1337L19.0823 17.171C19.25 17.2144 19.3555 17.2641 19.3555 17.3821C19.3555 17.4939 19.25 17.5405 19.1288 17.5405C18.9705 17.5405 18.8462 17.4753 18.8245 17.3076H18.4425C18.4643 17.6275 18.6941 17.8355 19.132 17.8355Z" fill="white"/>
        </symbol>
    </defs>
</svg>