<svg width="80" height="22" viewBox="0 0 80 22" fill="none" xmlns="http://www.w3.org/2000/svg">
<path d="M66.1623 4.82422C61.583 4.82422 57.867 8.51656 57.867 13.0667C57.867 17.6169 61.583 21.3092 66.1623 21.3092C70.7416 21.3092 74.4575 17.6169 74.4575 13.0667C74.4575 8.51656 70.7416 4.82422 66.1623 4.82422ZM66.1623 18.0396C63.4723 18.0396 61.2827 15.8142 61.2827 13.0667C61.2827 10.3192 63.4597 8.09386 66.1623 8.09386C68.8648 8.09386 71.0418 10.3192 71.0418 13.0667C71.0293 15.8142 68.8523 18.0396 66.1623 18.0396Z" fill="#151D51"/>
<path d="M55.8141 5.07227H52.3984V21.0724H55.8141V5.07227Z" fill="#151D51"/>
<path d="M8.15764 8.1063C10.0844 8.1063 11.5984 9.12573 12.2615 10.8911H15.8899C14.9265 7.14902 12.0738 4.82422 8.23271 4.82422C3.55333 4.82422 0 8.51656 0 13.0791C0 17.6417 3.55333 21.3216 8.23271 21.3216C12.0738 21.3216 14.9265 18.9968 15.8899 15.2548H12.2615C11.5984 17.0201 10.0719 18.0396 8.15764 18.0396C5.36753 18.0396 3.42821 15.8142 3.42821 13.0667C3.42821 10.3192 5.36753 8.1063 8.15764 8.1063Z" fill="#151D51"/>
<path d="M44.4423 7.45776V5.0708H41.0391V21.0834H44.4423V14.1338C44.4423 10.0063 46.7194 7.69397 50.4479 8.4772V5.0708C48.1207 4.32487 45.5057 5.65511 44.4423 7.45776Z" fill="#151D51"/>
<path d="M21.2712 17.032V0H17.8555V17.3552C17.8555 19.1579 18.6437 21.0724 21.4213 21.0724H22.7726V18.3622H22.2721C21.609 18.3001 21.2712 17.9893 21.2712 17.032Z" fill="#151D51"/>
<path d="M37.5589 17.0326V10.6797C37.5589 7.59658 35.8198 4.82422 31.0278 4.82422C27.2242 4.82422 24.7344 7.52199 24.4091 10.17H27.7998C28.1251 8.81493 29.2386 7.70847 30.9903 7.70847C33.0297 7.70847 34.1432 8.77763 34.1432 10.17C34.1432 10.7046 33.893 11.3884 32.7544 11.3884L30.0269 11.4381C26.1983 11.4381 23.8711 13.104 23.8711 16.2742C23.8711 19.1833 26.0106 21.3341 29.4638 21.3341C31.5783 21.3341 33.2549 20.4887 34.481 19.2206C34.9315 20.2773 35.8949 21.0854 37.6965 21.0854H38.8351V18.3752H38.5473C37.8967 18.3006 37.5589 17.9898 37.5589 17.0326ZM29.9518 18.4374C28.2001 18.4374 27.3619 17.418 27.3619 16.3612C27.3619 14.5959 28.8257 14.0737 30.4648 14.0737L32.5042 14.0364C33.1173 14.0364 33.6553 13.9618 34.1307 13.7505V14.1732C34.1432 17.1942 32.0287 18.4374 29.9518 18.4374Z" fill="#151D51"/>
<path d="M51.0094 0.0117188C50.9844 0.148472 50.9844 0.297657 50.9844 0.446843C50.9844 2.17491 52.3857 3.5673 54.1248 3.5673C55.8639 3.5673 57.2653 2.17491 57.2653 0.446843C57.2653 0.297657 57.2527 0.148472 57.2402 0.0117188H51.0094Z" fill="#5CD6C0"/>
<path d="M79.9747 21.0849C79.9997 20.9481 79.9997 20.7989 79.9997 20.6498C79.9997 18.9217 78.5984 17.5293 76.8593 17.5293C75.1201 17.5293 73.7188 18.9217 73.7188 20.6498C73.7188 20.7989 73.7313 20.9481 73.7438 21.0849H79.9747Z" fill="#5CD6C0"/>
</svg>
